<svg width="92" height="20" viewBox="0 0 92 20" fill="none" xmlns="http://www.w3.org/2000/svg">
<g clip-path="url(#clip0_1_4036)">
<g clip-path="url(#clip1_1_4036)">
<path d="M20.7995 17.7692H16.9111L19.3432 2.28075H23.2313L20.7995 17.7692Z" fill="#00579F"/>
<path d="M34.8951 2.6594C34.1282 2.34601 32.9117 2 31.4076 2C27.5678 2 24.8638 4.10895 24.8472 7.12412C24.8153 9.3487 26.7832 10.5843 28.255 11.326C29.7593 12.084 30.2707 12.5787 30.2707 13.2543C30.2554 14.2919 29.0551 14.7702 27.9356 14.7702C26.3832 14.7702 25.5514 14.5236 24.2873 13.9463L23.7753 13.6989L23.2312 17.1757C24.1432 17.6036 25.8234 17.9834 27.5678 18C31.6477 18 34.3038 15.9237 34.3353 12.7105C34.3508 10.9474 33.3117 9.59639 31.0714 8.49242C29.7115 7.78374 28.8786 7.30588 28.8786 6.58078C28.8946 5.9216 29.583 5.24643 31.1182 5.24643C32.3823 5.21336 33.3111 5.5263 34.0146 5.83947L34.3663 6.00394L34.8951 2.6594Z" fill="#00579F"/>
<path d="M40.0637 12.2822C40.384 11.3924 41.6161 7.94864 41.6161 7.94864C41.6 7.98171 41.9357 7.04243 42.1277 6.4658L42.3995 7.80038C42.3995 7.80038 43.1358 11.5078 43.2957 12.2822C42.688 12.2822 40.8318 12.2822 40.0637 12.2822ZM44.8634 2.28075H41.8558C40.9283 2.28075 40.2236 2.56063 39.8235 3.56583L34.0479 17.769H38.1278C38.1278 17.769 38.7995 15.8573 38.9438 15.4456C39.3914 15.4456 43.3603 15.4456 43.9361 15.4456C44.0478 15.9894 44.4001 17.769 44.4001 17.769H48.0003L44.8634 2.28075Z" fill="#00579F"/>
<path d="M13.6634 2.28075L9.85548 12.8424L9.43936 10.7004C8.73535 8.22874 6.52742 5.54338 4.06348 4.20815L7.55143 17.7527H11.6632L17.775 2.28075H13.6634Z" fill="#00579F"/>
<path d="M6.31995 2.28075H0.0640009L0 2.5937C4.88003 3.879 8.11199 6.97716 9.43985 10.701L8.07988 3.58269C7.85598 2.59348 7.16792 2.31338 6.31995 2.28075Z" fill="#F4A622"/>
</g>
<path d="M80.3255 2.13892H71.6733V17.8611H80.3255V2.13892Z" fill="#FF5F00"/>
<path d="M72.2229 9.99998C72.2229 6.80554 73.7062 3.9722 75.9859 2.13887C74.3104 0.805537 72.1955 -1.90735e-05 69.8882 -1.90735e-05C64.4222 -1.90735e-05 60 4.4722 60 9.99998C60 15.5278 64.4222 20 69.8882 20C72.1955 20 74.3104 19.1944 75.9859 17.8611C73.7062 16.0555 72.2229 13.1944 72.2229 9.99998Z" fill="#EB001B"/>
<path d="M92.0001 10C92.0001 15.5278 87.5779 20 82.1119 20C79.8046 20 77.6897 19.1944 76.0142 17.8611C78.3214 16.0278 79.7772 13.1944 79.7772 10C79.7772 6.80556 78.2939 3.97222 76.0142 2.13889C77.6897 0.805556 79.8046 0 82.1119 0C87.5779 0 92.0001 4.5 92.0001 10Z" fill="#F79E1B"/>
</g>
<defs>
<clipPath id="clip0_1_4036">
<rect width="92" height="20" fill="white"/>
</clipPath>
<clipPath id="clip1_1_4036">
<rect width="48" height="16" fill="white" transform="translate(0 2.00001)"/>
</clipPath>
</defs>
</svg>
